<svg xmlns="http://www.w3.org/2000/svg" xmlns:xlink="http://www.w3.org/1999/xlink" width="300" zoomAndPan="magnify" viewBox="0 0 224.87999 74.999997" height="100" preserveAspectRatio="xMidYMid meet" version="1.0"><defs><g/><clipPath id="738ef6cfc4"><path d="M 6 4.636719 L 73 4.636719 L 73 71.347656 L 6 71.347656 Z M 6 4.636719 " clip-rule="nonzero"/></clipPath></defs><g fill="#172a88" fill-opacity="1"><g transform="translate(77.338027, 59.476906)"><g><path d="M 5.6875 -44.6875 C 7.46875 -45.195312 8.425781 -45.453125 8.5625 -45.453125 C 8.6875 -45.453125 9.609375 -45.15625 11.328125 -44.5625 C 13.054688 -43.96875 14.21875 -43.5625 14.8125 -43.34375 C 15.445312 -43.09375 15.867188 -42.898438 16.078125 -42.765625 C 16.296875 -42.640625 16.34375 -42.492188 16.21875 -42.328125 C 15.625 -41.472656 15.195312 -40.664062 14.9375 -39.90625 C 14.46875 -38.5 14.210938 -34.859375 14.171875 -28.984375 C 14.128906 -23.109375 14.300781 -16.128906 14.6875 -8.046875 L 14.8125 -4.28125 L 13.59375 -3 C 13.125 -2.40625 12.421875 -1.597656 11.484375 -0.578125 L 10.65625 0.453125 L 9 0.453125 L 8.234375 -0.1875 C 7.171875 -1.039062 5.925781 -2.132812 4.5 -3.46875 C 3.070312 -4.8125 2.359375 -5.570312 2.359375 -5.75 C 2.359375 -5.832031 2.46875 -5.957031 2.6875 -6.125 C 2.894531 -6.300781 3.082031 -6.367188 3.25 -6.328125 C 3.71875 -6.109375 4.019531 -6.128906 4.15625 -6.390625 C 4.53125 -7.109375 4.71875 -13.9375 4.71875 -26.875 C 4.71875 -33.425781 4.6875 -37.273438 4.625 -38.421875 C 4.5625 -39.578125 4.359375 -40.5625 4.015625 -41.375 C 3.804688 -41.925781 3.550781 -42.476562 3.25 -43.03125 C 2.875 -43.539062 2.75 -43.816406 2.875 -43.859375 C 2.914062 -43.859375 3.851562 -44.132812 5.6875 -44.6875 Z M 5.6875 -44.6875 "/></g></g></g><g fill="#172a88" fill-opacity="1"><g transform="translate(95.532421, 59.476906)"><g/></g></g><g fill="#172a88" fill-opacity="1"><g transform="translate(111.939302, 59.476906)"><g><path d="M 15.390625 -44.75 C 17.265625 -45.007812 19.429688 -45.03125 21.890625 -44.8125 C 24.742188 -44.5625 27.617188 -43.96875 30.515625 -43.03125 C 31.285156 -42.769531 32.210938 -42.4375 33.296875 -42.03125 C 34.378906 -41.632812 34.960938 -41.394531 35.046875 -41.3125 L 31.34375 -34.46875 C 30.789062 -34.644531 30.003906 -34.878906 28.984375 -35.171875 C 23.660156 -36.703125 19.722656 -37.300781 17.171875 -36.96875 C 15.898438 -36.789062 14.929688 -36.375 14.265625 -35.71875 C 13.609375 -35.0625 13.28125 -34.304688 13.28125 -33.453125 C 13.28125 -32.429688 13.914062 -31.453125 15.1875 -30.515625 C 15.957031 -29.960938 17.171875 -29.472656 18.828125 -29.046875 C 23.128906 -27.941406 26.644531 -26.789062 29.375 -25.59375 C 32.4375 -23.9375 34.367188 -21.515625 35.171875 -18.328125 C 35.859375 -15.722656 35.890625 -13.113281 35.265625 -10.5 C 34.648438 -7.882812 33.492188 -5.679688 31.796875 -3.890625 C 28.691406 -0.578125 24.5625 0.78125 19.40625 0.1875 C 16.976562 -0.0195312 14.570312 -0.550781 12.1875 -1.40625 C 9.8125 -2.257812 8.113281 -3.195312 7.09375 -4.21875 C 6.445312 -4.894531 5.253906 -6.46875 3.515625 -8.9375 C 2.398438 -10.46875 1.890625 -11.34375 1.984375 -11.5625 C 2.066406 -11.769531 2.320312 -12.148438 2.75 -12.703125 C 3.175781 -13.253906 3.410156 -13.550781 3.453125 -13.59375 C 3.492188 -13.632812 4.085938 -13.335938 5.234375 -12.703125 C 10.890625 -9.640625 15.765625 -8.210938 19.859375 -8.421875 C 22.023438 -8.515625 23.554688 -9.09375 24.453125 -10.15625 C 25.390625 -11.132812 25.878906 -12.644531 25.921875 -14.6875 C 25.921875 -15.582031 25.8125 -16.21875 25.59375 -16.59375 C 25.21875 -17.238281 24.175781 -17.941406 22.46875 -18.703125 C 20.8125 -19.429688 18.707031 -20.175781 16.15625 -20.9375 C 10.957031 -22.46875 7.53125 -24.128906 5.875 -25.921875 C 5.0625 -26.773438 4.46875 -28.007812 4.09375 -29.625 C 3.914062 -30.257812 3.804688 -31.195312 3.765625 -32.4375 C 3.722656 -34.09375 3.976562 -35.582031 4.53125 -36.90625 C 4.957031 -38.09375 5.660156 -39.21875 6.640625 -40.28125 C 9.023438 -42.75 11.941406 -44.238281 15.390625 -44.75 Z M 15.390625 -44.75 "/></g></g></g><g fill="#172a88" fill-opacity="1"><g transform="translate(150.370989, 59.476906)"><g/></g></g><g fill="#172a88" fill-opacity="1"><g transform="translate(166.777871, 59.476906)"><g><path d="M 6.640625 -44.3125 C 8.898438 -45.070312 10.132812 -45.453125 10.34375 -45.453125 C 10.507812 -45.453125 10.816406 -45.390625 11.265625 -45.265625 C 11.710938 -45.140625 11.9375 -45.054688 11.9375 -45.015625 C 11.9375 -44.921875 11.851562 -44.6875 11.6875 -44.3125 C 11.601562 -43.882812 11.5625 -43.5 11.5625 -43.15625 C 11.726562 -42.007812 12.984375 -39.691406 15.328125 -36.203125 C 15.703125 -35.648438 16.503906 -34.519531 17.734375 -32.8125 C 18.972656 -31.113281 19.660156 -30.15625 19.796875 -29.9375 C 19.796875 -29.9375 19.816406 -29.9375 19.859375 -29.9375 C 19.898438 -29.9375 19.941406 -29.957031 19.984375 -30 C 20.023438 -30.050781 20.109375 -30.148438 20.234375 -30.296875 C 20.367188 -30.441406 20.550781 -30.640625 20.78125 -30.890625 C 21.007812 -31.148438 21.273438 -31.472656 21.578125 -31.859375 C 25.023438 -35.941406 27.429688 -39.347656 28.796875 -42.078125 C 29.085938 -42.585938 29.242188 -42.914062 29.265625 -43.0625 C 29.285156 -43.207031 29.296875 -43.300781 29.296875 -43.34375 C 29.296875 -43.601562 29.210938 -43.90625 29.046875 -44.25 L 28.796875 -44.75 L 29.046875 -44.875 C 29.347656 -44.96875 29.625 -45.078125 29.875 -45.203125 L 30.390625 -45.453125 L 31.734375 -45.015625 C 35.140625 -43.859375 37.265625 -42.960938 38.109375 -42.328125 C 38.578125 -41.941406 38.941406 -41.132812 39.203125 -39.90625 C 39.410156 -38.84375 39.515625 -38.179688 39.515625 -37.921875 C 39.515625 -37.878906 39.503906 -37.816406 39.484375 -37.734375 C 39.460938 -37.648438 39.113281 -37.332031 38.4375 -36.78125 C 36.175781 -34.863281 33.648438 -32.285156 30.859375 -29.046875 C 28.078125 -25.816406 26.003906 -23.007812 24.640625 -20.625 L 24.140625 -19.65625 L 24.0625 -16.46875 C 24.0625 -16.082031 24.0625 -15.703125 24.0625 -15.328125 C 24.0625 -12.554688 24.191406 -9.507812 24.453125 -6.1875 L 24.640625 -3.765625 L 23.5625 -2.484375 C 22.832031 -1.640625 22.234375 -0.941406 21.765625 -0.390625 C 21.429688 0.0351562 21.195312 0.289062 21.0625 0.375 C 20.9375 0.46875 20.75 0.515625 20.5 0.515625 C 20.15625 0.515625 19.707031 0.300781 19.15625 -0.125 C 17.875 -1.1875 16.765625 -2.296875 15.828125 -3.453125 C 15.453125 -3.960938 15.265625 -4.429688 15.265625 -4.859375 C 15.265625 -5.023438 15.285156 -5.191406 15.328125 -5.359375 C 15.703125 -6.460938 15.976562 -9.910156 16.15625 -15.703125 L 16.15625 -18.640625 L 15.390625 -20.234375 C 14.023438 -23.085938 12.097656 -26.109375 9.609375 -29.296875 C 7.117188 -32.492188 4.742188 -35.070312 2.484375 -37.03125 L 1.46875 -37.921875 L 1.71875 -38.75 C 2.488281 -41.5625 2.9375 -43.007812 3.0625 -43.09375 C 3.1875 -43.132812 4.378906 -43.539062 6.640625 -44.3125 Z M 6.640625 -44.3125 "/></g></g></g><g clip-path="url(#738ef6cfc4)"><path fill="#0d4082" d="M 7.78125 37.921875 L 7.78125 38.464844 C 7.78125 38.828125 7.78125 39.433594 7.839844 40.15625 C 7.960938 41.605469 8.144531 43.722656 8.867188 46.320312 C 8.988281 46.621094 9.050781 46.984375 9.171875 47.347656 C 9.289062 47.707031 9.410156 48.011719 9.53125 48.375 C 9.652344 48.734375 9.773438 49.097656 9.957031 49.460938 C 10.074219 49.824219 10.257812 50.183594 10.4375 50.546875 C 11.101562 52.058594 11.949219 53.628906 12.976562 55.199219 C 15.03125 58.339844 17.988281 61.601562 21.855469 64.199219 C 23.789062 65.46875 25.964844 66.617188 28.261719 67.523438 C 30.617188 68.429688 33.152344 69.035156 35.75 69.335938 C 36.054688 69.394531 36.414062 69.394531 36.777344 69.457031 C 37.140625 69.457031 37.441406 69.515625 37.804688 69.515625 L 40.945312 69.515625 C 41.308594 69.515625 41.609375 69.457031 41.972656 69.457031 C 42.699219 69.394531 43.363281 69.335938 44.027344 69.214844 C 45.417969 68.972656 46.804688 68.730469 48.136719 68.308594 C 48.800781 68.128906 49.464844 67.886719 50.191406 67.644531 C 50.550781 67.523438 50.855469 67.402344 51.214844 67.222656 L 51.699219 67.039062 L 52.183594 66.796875 C 54.839844 65.652344 57.378906 64.019531 59.675781 62.148438 C 60.820312 61.179688 61.910156 60.09375 62.9375 59.003906 C 63.964844 57.859375 64.871094 56.648438 65.714844 55.382812 C 66.5625 54.113281 67.285156 52.78125 67.949219 51.394531 C 68.617188 50.003906 69.160156 48.554688 69.582031 47.105469 C 70.066406 45.65625 70.367188 44.144531 70.609375 42.574219 C 70.851562 41.0625 70.910156 39.492188 70.972656 37.921875 C 70.972656 36.351562 70.851562 34.78125 70.609375 33.269531 C 70.367188 31.761719 70.066406 30.25 69.582031 28.738281 C 69.097656 27.289062 68.617188 25.839844 67.949219 24.449219 C 67.285156 23.058594 66.5625 21.730469 65.714844 20.460938 C 64.871094 19.195312 63.964844 17.984375 62.9375 16.839844 C 61.910156 15.75 60.820312 14.664062 59.675781 13.695312 C 57.378906 11.761719 54.839844 10.191406 52.183594 9.046875 L 51.699219 8.804688 L 51.214844 8.621094 C 50.855469 8.5 50.550781 8.378906 50.191406 8.199219 C 49.523438 7.957031 48.859375 7.714844 48.136719 7.535156 C 46.746094 7.113281 45.355469 6.871094 44.027344 6.628906 C 43.300781 6.566406 42.636719 6.449219 41.972656 6.386719 C 41.609375 6.386719 41.308594 6.328125 40.945312 6.328125 L 37.804688 6.328125 C 37.441406 6.328125 37.140625 6.386719 36.777344 6.386719 C 36.414062 6.386719 36.113281 6.449219 35.75 6.507812 C 33.09375 6.808594 30.554688 7.414062 28.261719 8.320312 C 25.902344 9.226562 23.789062 10.3125 21.855469 11.644531 C 17.988281 14.242188 15.03125 17.441406 12.976562 20.644531 C 11.949219 22.214844 11.101562 23.785156 10.4375 25.296875 C 10.257812 25.660156 10.136719 26.019531 9.957031 26.382812 C 9.835938 26.746094 9.652344 27.109375 9.53125 27.46875 C 9.410156 27.832031 9.289062 28.195312 9.171875 28.496094 C 9.050781 28.859375 8.988281 29.164062 8.867188 29.523438 C 8.144531 32.121094 7.902344 34.238281 7.839844 35.746094 C 7.78125 36.472656 7.78125 37.015625 7.78125 37.4375 L 7.78125 37.921875 L 6.089844 37.921875 L 6.089844 37.316406 C 6.089844 37.316406 6.089844 36.351562 6.148438 35.566406 C 6.269531 34.054688 6.511719 31.761719 7.238281 29.042969 C 7.359375 28.679688 7.417969 28.316406 7.539062 27.953125 C 7.660156 27.589844 7.78125 27.230469 7.902344 26.867188 C 8.023438 26.503906 8.203125 26.140625 8.324219 25.71875 C 8.503906 25.355469 8.625 24.933594 8.808594 24.570312 C 9.472656 23 10.378906 21.367188 11.464844 19.675781 C 13.640625 16.355469 16.78125 12.972656 20.828125 10.191406 C 22.882812 8.863281 25.179688 7.65625 27.59375 6.6875 C 30.132812 5.78125 32.789062 5.179688 35.628906 4.816406 C 35.992188 4.753906 36.355469 4.753906 36.65625 4.695312 C 37.019531 4.695312 37.382812 4.636719 37.746094 4.636719 C 38.105469 4.636719 38.46875 4.636719 38.832031 4.636719 L 41.007812 4.636719 C 41.007812 4.636719 41.730469 4.695312 42.09375 4.695312 C 42.820312 4.753906 43.542969 4.875 44.269531 4.9375 C 45.71875 5.179688 47.167969 5.421875 48.617188 5.902344 C 49.34375 6.085938 50.070312 6.386719 50.792969 6.566406 C 51.15625 6.6875 51.519531 6.871094 51.882812 6.992188 L 52.425781 7.171875 L 52.96875 7.414062 C 55.746094 8.621094 58.464844 10.3125 60.882812 12.367188 C 62.089844 13.394531 63.238281 14.480469 64.324219 15.691406 C 65.414062 16.898438 66.378906 18.167969 67.285156 19.496094 C 68.191406 20.824219 68.976562 22.273438 69.640625 23.726562 C 70.367188 25.175781 70.910156 26.683594 71.394531 28.257812 C 71.878906 29.828125 72.179688 31.398438 72.480469 33.027344 C 72.722656 34.660156 72.84375 36.289062 72.84375 37.921875 C 72.84375 39.554688 72.722656 41.183594 72.480469 42.816406 C 72.238281 44.445312 71.878906 46.015625 71.394531 47.585938 C 70.910156 49.160156 70.367188 50.667969 69.640625 52.117188 C 68.917969 53.570312 68.132812 55.019531 67.285156 56.347656 C 66.378906 57.675781 65.414062 58.945312 64.324219 60.152344 C 63.238281 61.300781 62.089844 62.449219 60.882812 63.476562 C 58.464844 65.53125 55.808594 67.160156 52.96875 68.429688 L 52.425781 68.671875 L 51.882812 68.851562 C 51.519531 68.972656 51.15625 69.15625 50.792969 69.277344 C 50.070312 69.515625 49.34375 69.757812 48.617188 69.941406 C 47.167969 70.363281 45.71875 70.664062 44.269531 70.90625 C 43.542969 70.96875 42.820312 71.089844 42.09375 71.148438 C 41.730469 71.148438 41.371094 71.207031 41.007812 71.207031 C 40.644531 71.207031 40.28125 71.207031 39.917969 71.207031 L 37.746094 71.207031 C 37.746094 71.207031 37.019531 71.148438 36.65625 71.148438 C 36.292969 71.148438 35.933594 71.089844 35.628906 71.027344 C 32.851562 70.664062 30.191406 70.0625 27.714844 69.15625 C 25.238281 68.1875 23.003906 67.039062 20.949219 65.652344 C 16.84375 62.933594 13.761719 59.488281 11.585938 56.167969 C 10.5 54.476562 9.59375 52.84375 8.929688 51.273438 C 8.6875 50.910156 8.503906 50.488281 8.382812 50.125 C 8.265625 49.761719 8.082031 49.339844 7.960938 48.976562 C 7.839844 48.613281 7.71875 48.253906 7.597656 47.890625 C 7.476562 47.527344 7.359375 47.164062 7.296875 46.863281 C 6.511719 44.082031 6.269531 41.847656 6.148438 40.277344 C 6.089844 39.492188 6.089844 38.949219 6.089844 38.527344 C 6.089844 38.101562 6.089844 37.921875 6.089844 37.921875 Z M 7.78125 37.921875 " fill-opacity="1" fill-rule="nonzero"/></g><path fill="#4b7fc2" d="M 46.867188 12.609375 C 46.867188 12.609375 46.6875 12.550781 46.324219 12.429688 C 45.960938 12.308594 45.476562 12.246094 44.933594 12.066406 C 43.726562 11.824219 42.15625 11.582031 40.523438 11.523438 L 38.105469 11.523438 C 37.320312 11.582031 36.65625 11.582031 36.054688 11.703125 C 35.75 11.761719 35.449219 11.761719 35.207031 11.824219 C 34.964844 11.882812 34.785156 11.882812 34.601562 11.945312 C 34.242188 12.003906 34.058594 12.066406 34.058594 12.066406 L 33.394531 8.863281 C 33.394531 8.863281 33.636719 8.804688 34 8.742188 C 34.179688 8.683594 34.421875 8.683594 34.722656 8.621094 C 34.964844 8.5625 35.328125 8.5625 35.628906 8.5 C 36.292969 8.378906 37.082031 8.378906 37.925781 8.320312 C 38.347656 8.320312 38.773438 8.320312 39.253906 8.257812 L 40.644531 8.257812 C 42.457031 8.320312 44.269531 8.621094 45.597656 8.863281 C 46.261719 9.046875 46.804688 9.105469 47.167969 9.226562 C 47.53125 9.347656 47.773438 9.40625 47.773438 9.40625 Z M 46.867188 12.609375 " fill-opacity="1" fill-rule="nonzero"/><path fill="#4b7fc2" d="M 58.464844 19.738281 C 58.464844 19.738281 58.34375 19.617188 58.105469 19.316406 C 57.863281 19.074219 57.5 18.710938 57.015625 18.289062 C 56.109375 17.441406 54.839844 16.476562 53.453125 15.628906 C 52.0625 14.785156 50.613281 14.058594 49.523438 13.574219 C 49.222656 13.453125 48.980469 13.394531 48.738281 13.273438 C 48.5 13.152344 48.316406 13.09375 48.136719 13.03125 L 47.59375 12.851562 L 48.617188 9.710938 C 48.617188 9.710938 48.859375 9.769531 49.222656 9.890625 C 49.402344 9.949219 49.644531 10.011719 49.886719 10.132812 C 50.128906 10.253906 50.429688 10.375 50.734375 10.496094 C 52.003906 11.039062 53.632812 11.824219 55.144531 12.789062 C 56.652344 13.757812 58.105469 14.90625 59.128906 15.8125 C 59.613281 16.292969 60.035156 16.65625 60.339844 16.957031 C 60.640625 17.261719 60.761719 17.441406 60.761719 17.441406 Z M 58.464844 19.738281 " fill-opacity="1" fill-rule="nonzero"/><path fill="#4b7fc2" d="M 65.050781 31.699219 C 65.050781 31.699219 65.050781 31.640625 64.992188 31.578125 C 64.992188 31.457031 64.929688 31.335938 64.871094 31.15625 C 64.808594 30.972656 64.75 30.792969 64.6875 30.550781 C 64.628906 30.308594 64.566406 30.066406 64.445312 29.765625 C 64.085938 28.617188 63.480469 27.109375 62.753906 25.71875 C 62.03125 24.269531 61.125 22.941406 60.398438 21.972656 C 60.035156 21.488281 59.734375 21.066406 59.492188 20.824219 C 59.25 20.582031 59.128906 20.402344 59.128906 20.402344 L 61.609375 18.226562 C 61.609375 18.226562 61.726562 18.410156 62.03125 18.710938 C 62.332031 19.011719 62.632812 19.4375 63.058594 19.980469 C 63.902344 21.066406 64.929688 22.578125 65.714844 24.207031 C 66.5625 25.839844 67.226562 27.46875 67.648438 28.800781 C 67.769531 29.101562 67.828125 29.402344 67.890625 29.707031 C 67.949219 29.949219 68.011719 30.1875 68.070312 30.371094 C 68.132812 30.550781 68.132812 30.734375 68.191406 30.792969 C 68.191406 30.914062 68.253906 30.972656 68.253906 30.972656 Z M 65.050781 31.699219 " fill-opacity="1" fill-rule="nonzero"/><path fill="#4b7fc2" d="M 64.6875 45.351562 L 64.871094 44.808594 C 64.871094 44.75 64.929688 44.628906 64.929688 44.507812 C 64.929688 44.386719 64.992188 44.265625 64.992188 44.144531 C 65.050781 43.902344 65.113281 43.660156 65.171875 43.359375 C 65.414062 42.152344 65.65625 40.578125 65.714844 38.949219 C 65.714844 38.527344 65.777344 38.101562 65.714844 37.742188 L 65.714844 36.53125 C 65.65625 35.746094 65.59375 35.082031 65.535156 34.476562 C 65.472656 33.875 65.351562 33.390625 65.292969 33.027344 C 65.292969 32.847656 65.230469 32.726562 65.230469 32.605469 C 65.230469 32.484375 65.230469 32.484375 65.230469 32.484375 L 68.433594 31.820312 C 68.433594 31.820312 68.433594 31.878906 68.496094 32 C 68.496094 32.121094 68.554688 32.242188 68.554688 32.425781 C 68.617188 32.785156 68.734375 33.390625 68.796875 34.054688 C 68.917969 34.71875 68.917969 35.503906 69.039062 36.351562 C 69.039062 36.773438 69.039062 37.195312 69.097656 37.679688 L 69.097656 39.070312 C 69.039062 40.882812 68.734375 42.695312 68.496094 44.023438 L 68.3125 44.929688 C 68.3125 45.050781 68.253906 45.171875 68.253906 45.292969 C 68.191406 45.414062 68.191406 45.535156 68.132812 45.59375 C 68.011719 45.957031 67.949219 46.199219 67.949219 46.199219 Z M 64.6875 45.351562 " fill-opacity="1" fill-rule="nonzero"/><path fill="#4b7fc2" d="M 57.558594 57.074219 C 57.558594 57.074219 57.679688 56.953125 57.984375 56.710938 C 58.222656 56.46875 58.585938 56.105469 59.007812 55.621094 C 59.796875 54.714844 60.820312 53.449219 61.667969 52.058594 C 62.511719 50.667969 63.238281 49.21875 63.722656 48.132812 C 63.902344 47.585938 64.144531 47.105469 64.265625 46.800781 L 64.445312 46.257812 L 67.589844 47.285156 C 67.589844 47.285156 67.527344 47.527344 67.40625 47.890625 C 67.285156 48.253906 67.042969 48.796875 66.804688 49.398438 C 66.257812 50.667969 65.472656 52.300781 64.507812 53.808594 C 63.539062 55.320312 62.394531 56.769531 61.488281 57.796875 C 61.003906 58.28125 60.640625 58.703125 60.339844 59.003906 C 60.035156 59.308594 59.855469 59.429688 59.855469 59.429688 Z M 57.558594 57.074219 " fill-opacity="1" fill-rule="nonzero"/><path fill="#4b7fc2" d="M 45.597656 63.597656 C 45.597656 63.597656 45.660156 63.597656 45.71875 63.535156 C 45.839844 63.535156 45.960938 63.476562 46.140625 63.414062 C 46.324219 63.355469 46.503906 63.292969 46.746094 63.234375 C 46.988281 63.175781 47.230469 63.113281 47.53125 62.992188 C 48.679688 62.628906 50.191406 62.027344 51.578125 61.300781 C 53.027344 60.578125 54.359375 59.671875 55.324219 58.945312 C 55.808594 58.582031 56.230469 58.28125 56.472656 58.039062 C 56.714844 57.796875 56.894531 57.675781 56.894531 57.675781 L 59.070312 60.152344 C 59.070312 60.152344 58.890625 60.273438 58.585938 60.578125 C 58.285156 60.878906 57.863281 61.179688 57.316406 61.601562 C 56.230469 62.449219 54.71875 63.414062 53.089844 64.261719 C 51.457031 65.105469 49.828125 65.773438 48.5 66.195312 C 48.195312 66.316406 47.894531 66.375 47.59375 66.4375 C 47.351562 66.496094 47.109375 66.558594 46.925781 66.617188 C 46.746094 66.679688 46.566406 66.679688 46.503906 66.738281 C 46.382812 66.738281 46.324219 66.796875 46.324219 66.796875 Z M 45.597656 63.597656 " fill-opacity="1" fill-rule="nonzero"/><path fill="#4b7fc2" d="M 31.945312 63.234375 C 31.945312 63.234375 32.125 63.292969 32.488281 63.414062 C 32.789062 63.535156 33.335938 63.597656 33.878906 63.777344 C 35.085938 64.019531 36.65625 64.261719 38.289062 64.320312 L 40.703125 64.320312 C 41.492188 64.261719 42.15625 64.199219 42.757812 64.140625 C 43.0625 64.082031 43.363281 64.082031 43.605469 64.019531 C 43.847656 63.960938 44.027344 63.960938 44.207031 63.898438 C 44.390625 63.898438 44.511719 63.839844 44.632812 63.839844 C 44.753906 63.839844 44.753906 63.839844 44.753906 63.839844 L 45.417969 67.039062 L 45.234375 67.039062 C 45.113281 67.039062 44.996094 67.101562 44.753906 67.101562 C 44.570312 67.160156 44.328125 67.160156 44.027344 67.222656 C 43.785156 67.28125 43.421875 67.28125 43.121094 67.34375 C 42.457031 67.464844 41.671875 67.464844 40.824219 67.585938 C 40.402344 67.585938 39.980469 67.585938 39.496094 67.644531 L 38.105469 67.644531 C 36.292969 67.585938 34.484375 67.28125 33.152344 67.039062 C 32.488281 66.859375 31.945312 66.796875 31.582031 66.679688 C 31.21875 66.558594 30.980469 66.496094 30.980469 66.496094 Z M 31.945312 63.234375 " fill-opacity="1" fill-rule="nonzero"/><path fill="#4b7fc2" d="M 20.347656 56.167969 C 20.347656 56.167969 20.46875 56.285156 20.707031 56.589844 C 20.949219 56.832031 21.3125 57.191406 21.796875 57.617188 C 22.703125 58.460938 23.972656 59.429688 25.359375 60.273438 C 26.75 61.121094 28.199219 61.84375 29.289062 62.328125 C 29.589844 62.449219 29.832031 62.507812 30.074219 62.628906 C 30.191406 62.691406 30.3125 62.691406 30.375 62.75 C 30.496094 62.8125 30.554688 62.8125 30.675781 62.8125 L 31.21875 62.992188 L 30.191406 66.132812 C 30.191406 66.132812 29.953125 66.074219 29.589844 65.953125 C 29.46875 65.890625 29.40625 65.890625 29.289062 65.832031 C 29.167969 65.773438 29.046875 65.710938 28.925781 65.710938 C 28.683594 65.589844 28.382812 65.46875 28.078125 65.347656 C 26.808594 64.804688 25.179688 64.019531 23.667969 63.054688 C 22.160156 62.085938 20.707031 60.9375 19.683594 60.03125 C 19.199219 59.550781 18.777344 59.1875 18.472656 58.882812 C 18.171875 58.582031 18.050781 58.402344 18.050781 58.402344 Z M 20.347656 56.167969 " fill-opacity="1" fill-rule="nonzero"/><path fill="#f79361" d="M 61.488281 36.472656 L 40.765625 36.472656 C 40.644531 35.6875 40.039062 35.082031 39.253906 34.960938 L 39.253906 15.386719 L 38.652344 15.386719 L 38.652344 34.960938 C 37.867188 35.082031 37.261719 35.6875 37.140625 36.472656 L 16.359375 36.472656 L 16.359375 37.074219 L 37.082031 37.074219 C 37.199219 37.863281 37.804688 38.464844 38.589844 38.585938 L 38.589844 58.160156 L 39.195312 58.160156 L 39.195312 38.585938 C 39.980469 38.464844 40.585938 37.863281 40.703125 37.074219 L 61.425781 37.074219 Z M 61.488281 36.472656 " fill-opacity="1" fill-rule="nonzero"/><path fill="#4b7fc2" d="M 35.933594 36.773438 C 35.933594 35.144531 37.261719 33.8125 38.894531 33.8125 C 40.523438 33.8125 41.851562 35.144531 41.851562 36.773438 C 41.851562 38.40625 40.523438 39.734375 38.894531 39.734375 C 37.261719 39.734375 35.933594 38.40625 35.933594 36.773438 Z M 35.933594 36.773438 " fill-opacity="1" fill-rule="nonzero"/></svg>