<svg xmlns="http://www.w3.org/2000/svg" xmlns:xlink="http://www.w3.org/1999/xlink" width="500" zoomAndPan="magnify" viewBox="0 0 375 374.999991" height="500" preserveAspectRatio="xMidYMid meet" version="1.0"><defs><clipPath id="8e7d5cc4e2"><path d="M 27 27.632812 L 348 27.632812 L 348 347.132812 L 27 347.132812 Z M 27 27.632812 " clip-rule="nonzero"/></clipPath></defs><g clip-path="url(#8e7d5cc4e2)"><path fill="#0d4082" d="M 35.324219 187.496094 L 35.324219 190.105469 C 35.324219 191.847656 35.324219 194.75 35.613281 198.230469 C 36.195312 205.191406 37.066406 215.347656 40.546875 227.824219 C 41.128906 229.273438 41.417969 231.015625 41.996094 232.753906 C 42.578125 234.496094 43.160156 235.945312 43.738281 237.6875 C 44.320312 239.429688 44.898438 241.167969 45.769531 242.910156 C 46.351562 244.652344 47.21875 246.390625 48.089844 248.132812 C 51.28125 255.386719 55.34375 262.929688 60.277344 270.472656 C 70.140625 285.558594 84.355469 301.226562 102.925781 313.703125 C 112.210938 319.792969 122.652344 325.308594 133.679688 329.660156 C 144.992188 334.011719 157.179688 336.910156 169.65625 338.363281 C 171.105469 338.652344 172.847656 338.652344 174.585938 338.941406 C 176.328125 338.941406 177.777344 339.234375 179.519531 339.234375 L 194.605469 339.234375 C 196.347656 339.234375 197.796875 338.941406 199.539062 338.941406 C 203.019531 338.652344 206.210938 338.363281 209.402344 337.78125 C 216.074219 336.621094 222.75 335.460938 229.132812 333.429688 C 232.324219 332.558594 235.515625 331.398438 238.996094 330.238281 C 240.738281 329.660156 242.1875 329.078125 243.929688 328.207031 L 246.25 327.335938 L 248.570312 326.175781 C 261.335938 320.664062 273.519531 312.832031 284.546875 303.835938 C 290.058594 299.195312 295.28125 293.972656 300.214844 288.75 C 305.144531 283.238281 309.496094 277.433594 313.558594 271.34375 C 317.621094 265.25 321.101562 258.867188 324.292969 252.195312 C 327.484375 245.519531 330.097656 238.558594 332.128906 231.59375 C 334.449219 224.632812 335.898438 217.378906 337.058594 209.835938 C 338.21875 202.582031 338.511719 195.039062 338.800781 187.496094 C 338.800781 179.953125 338.21875 172.410156 337.058594 165.15625 C 335.898438 157.902344 334.449219 150.648438 332.128906 143.394531 C 329.804688 136.433594 327.484375 129.46875 324.292969 122.796875 C 321.101562 116.125 317.621094 109.742188 313.558594 103.648438 C 309.496094 97.554688 305.144531 91.753906 300.214844 86.238281 C 295.28125 81.019531 290.058594 75.796875 284.546875 71.152344 C 273.519531 61.871094 261.335938 54.324219 248.570312 48.8125 L 246.25 47.652344 L 243.929688 46.78125 C 242.1875 46.203125 240.738281 45.621094 238.996094 44.75 C 235.804688 43.589844 232.613281 42.429688 229.132812 41.558594 C 222.457031 39.527344 215.785156 38.367188 209.402344 37.207031 C 205.921875 36.917969 202.730469 36.335938 199.539062 36.046875 C 197.796875 36.046875 196.347656 35.757812 194.605469 35.757812 L 179.519531 35.757812 C 177.777344 35.757812 176.328125 36.046875 174.585938 36.046875 C 172.847656 36.046875 171.394531 36.335938 169.65625 36.628906 C 156.890625 38.078125 144.703125 40.980469 133.679688 45.332031 C 122.363281 49.683594 112.210938 54.90625 102.925781 61.289062 C 84.355469 73.765625 70.140625 89.140625 60.277344 104.519531 C 55.34375 112.0625 51.28125 119.605469 48.089844 126.859375 C 47.21875 128.597656 46.640625 130.339844 45.769531 132.082031 C 45.1875 133.820312 44.320312 135.5625 43.738281 137.304688 C 43.15625 139.042969 42.578125 140.785156 41.996094 142.234375 C 41.417969 143.976562 41.128906 145.425781 40.546875 147.167969 C 37.066406 159.644531 35.90625 169.796875 35.613281 177.050781 C 35.324219 180.53125 35.324219 183.144531 35.324219 185.175781 L 35.324219 187.496094 L 27.199219 187.496094 L 27.199219 184.59375 C 27.199219 184.59375 27.199219 179.953125 27.492188 176.179688 C 28.070312 168.925781 29.230469 157.902344 32.714844 144.847656 C 33.292969 143.105469 33.582031 141.363281 34.164062 139.625 C 34.746094 137.882812 35.324219 136.140625 35.90625 134.402344 C 36.484375 132.660156 37.355469 130.921875 37.9375 128.890625 C 38.804688 127.148438 39.386719 125.117188 40.257812 123.375 C 43.449219 115.832031 47.800781 108 53.023438 99.875 C 63.46875 83.917969 78.554688 67.671875 97.992188 54.324219 C 107.855469 47.941406 118.882812 42.140625 130.488281 37.5 C 142.671875 33.144531 155.4375 30.246094 169.074219 28.503906 C 170.816406 28.214844 172.554688 28.214844 174.007812 27.925781 C 175.746094 27.925781 177.488281 27.632812 179.230469 27.632812 C 180.96875 27.632812 182.710938 27.632812 184.453125 27.632812 L 194.894531 27.632812 C 194.894531 27.632812 198.378906 27.925781 200.117188 27.925781 C 203.601562 28.214844 207.082031 28.792969 210.5625 29.085938 C 217.527344 30.246094 224.488281 31.40625 231.453125 33.726562 C 234.933594 34.597656 238.414062 36.046875 241.898438 36.917969 C 243.636719 37.5 245.378906 38.367188 247.121094 38.949219 L 249.730469 39.820312 L 252.339844 40.980469 C 265.6875 46.78125 278.742188 54.90625 290.347656 64.769531 C 296.152344 69.703125 301.664062 74.925781 306.886719 80.726562 C 312.109375 86.53125 316.75 92.621094 321.101562 99.003906 C 325.453125 105.386719 329.226562 112.351562 332.417969 119.316406 C 335.898438 126.277344 338.511719 133.53125 340.832031 141.074219 C 343.152344 148.617188 344.601562 156.160156 346.054688 163.996094 C 347.214844 171.828125 347.792969 179.660156 347.792969 187.496094 C 347.792969 195.328125 347.214844 203.164062 346.054688 210.996094 C 344.894531 218.828125 343.152344 226.371094 340.832031 233.914062 C 338.511719 241.460938 335.898438 248.710938 332.417969 255.675781 C 328.9375 262.640625 325.164062 269.601562 321.101562 275.984375 C 316.75 282.367188 312.109375 288.460938 306.886719 294.261719 C 301.664062 299.773438 296.152344 305.289062 290.347656 310.21875 C 278.742188 320.085938 265.976562 327.917969 252.339844 334.011719 L 249.730469 335.171875 L 247.121094 336.042969 C 245.378906 336.621094 243.636719 337.492188 241.898438 338.074219 C 238.414062 339.234375 234.933594 340.394531 231.453125 341.265625 C 224.488281 343.292969 217.527344 344.746094 210.5625 345.90625 C 207.082031 346.195312 203.601562 346.777344 200.117188 347.066406 C 198.378906 347.066406 196.636719 347.355469 194.894531 347.355469 C 193.15625 347.355469 191.414062 347.355469 189.671875 347.355469 L 179.230469 347.355469 C 179.230469 347.355469 175.746094 347.066406 174.007812 347.066406 C 172.265625 347.066406 170.523438 346.777344 169.074219 346.484375 C 155.726562 344.746094 142.960938 341.84375 131.066406 337.492188 C 119.171875 332.851562 108.4375 327.335938 98.574219 320.664062 C 78.84375 307.609375 64.046875 291.070312 53.601562 275.113281 C 48.378906 266.992188 44.027344 259.15625 40.835938 251.613281 C 39.675781 249.875 38.804688 247.84375 38.226562 246.101562 C 37.644531 244.359375 36.773438 242.328125 36.195312 240.589844 C 35.613281 238.847656 35.035156 237.105469 34.453125 235.367188 C 33.875 233.625 33.292969 231.886719 33.003906 230.433594 C 29.230469 217.089844 28.070312 206.355469 27.492188 198.808594 C 27.199219 195.039062 27.199219 192.425781 27.199219 190.398438 C 27.199219 188.367188 27.199219 187.496094 27.199219 187.496094 Z M 35.324219 187.496094 " fill-opacity="1" fill-rule="nonzero"/></g><path fill="#4b7fc2" d="M 223.039062 65.929688 C 223.039062 65.929688 222.167969 65.640625 220.425781 65.0625 C 218.6875 64.480469 216.367188 64.191406 213.753906 63.320312 C 207.953125 62.160156 200.410156 61 192.574219 60.707031 L 180.96875 60.707031 C 177.199219 61 174.007812 61 171.105469 61.578125 C 169.65625 61.871094 168.203125 61.871094 167.042969 62.160156 C 165.882812 62.449219 165.011719 62.449219 164.140625 62.738281 C 162.402344 63.03125 161.53125 63.320312 161.53125 63.320312 L 158.339844 47.941406 C 158.339844 47.941406 159.5 47.652344 161.242188 47.363281 C 162.109375 47.074219 163.273438 47.074219 164.722656 46.78125 C 165.882812 46.492188 167.625 46.492188 169.074219 46.203125 C 172.265625 45.621094 176.039062 45.621094 180.097656 45.332031 C 182.128906 45.332031 184.160156 45.332031 186.480469 45.042969 L 193.15625 45.042969 C 201.859375 45.332031 210.5625 46.78125 216.945312 47.941406 C 220.136719 48.8125 222.75 49.101562 224.488281 49.683594 C 226.230469 50.265625 227.390625 50.554688 227.390625 50.554688 Z M 223.039062 65.929688 " fill-opacity="1" fill-rule="nonzero"/><path fill="#4b7fc2" d="M 278.742188 100.167969 C 278.742188 100.167969 278.164062 99.585938 277.003906 98.136719 C 275.84375 96.976562 274.101562 95.234375 271.78125 93.203125 C 267.429688 89.140625 261.335938 84.5 254.664062 80.4375 C 247.988281 76.375 241.027344 72.894531 235.804688 70.574219 C 234.351562 69.992188 233.191406 69.703125 232.03125 69.121094 C 230.871094 68.542969 230 68.253906 229.132812 67.960938 L 226.519531 67.089844 L 231.453125 52.003906 C 231.453125 52.003906 232.613281 52.292969 234.351562 52.875 C 235.222656 53.164062 236.382812 53.457031 237.542969 54.035156 C 238.707031 54.617188 240.15625 55.195312 241.605469 55.777344 C 247.699219 58.386719 255.53125 62.160156 262.785156 66.800781 C 270.039062 71.445312 277.003906 76.957031 281.933594 81.308594 C 284.253906 83.628906 286.285156 85.371094 287.738281 86.820312 C 289.1875 88.269531 289.769531 89.140625 289.769531 89.140625 Z M 278.742188 100.167969 " fill-opacity="1" fill-rule="nonzero"/><path fill="#4b7fc2" d="M 310.367188 157.613281 C 310.367188 157.613281 310.367188 157.320312 310.078125 157.03125 C 310.078125 156.453125 309.789062 155.871094 309.496094 155 C 309.207031 154.128906 308.917969 153.261719 308.625 152.097656 C 308.335938 150.9375 308.046875 149.777344 307.464844 148.328125 C 305.726562 142.816406 302.824219 135.5625 299.34375 128.890625 C 295.859375 121.925781 291.507812 115.542969 288.027344 110.902344 C 286.285156 108.578125 284.835938 106.550781 283.675781 105.386719 C 282.515625 104.226562 281.933594 103.359375 281.933594 103.359375 L 293.828125 92.914062 C 293.828125 92.914062 294.410156 93.785156 295.859375 95.234375 C 297.3125 96.683594 298.761719 98.714844 300.792969 101.328125 C 304.855469 106.550781 309.785156 113.800781 313.558594 121.636719 C 317.621094 129.46875 320.8125 137.304688 322.84375 143.6875 C 323.421875 145.136719 323.714844 146.585938 324.003906 148.039062 C 324.292969 149.199219 324.582031 150.359375 324.875 151.230469 C 325.164062 152.097656 325.164062 152.96875 325.453125 153.261719 C 325.453125 153.839844 325.746094 154.128906 325.746094 154.128906 Z M 310.367188 157.613281 " fill-opacity="1" fill-rule="nonzero"/><path fill="#4b7fc2" d="M 308.625 223.179688 L 309.496094 220.570312 C 309.496094 220.28125 309.789062 219.699219 309.789062 219.121094 C 309.789062 218.539062 310.078125 217.957031 310.078125 217.378906 C 310.367188 216.21875 310.65625 215.058594 310.949219 213.605469 C 312.109375 207.804688 313.269531 200.261719 313.558594 192.425781 C 313.558594 190.398438 313.847656 188.367188 313.558594 186.625 L 313.558594 180.820312 C 313.269531 177.050781 312.980469 173.859375 312.6875 170.957031 C 312.398438 168.054688 311.816406 165.734375 311.527344 163.996094 C 311.527344 163.125 311.238281 162.542969 311.238281 161.964844 C 311.238281 161.382812 311.238281 161.382812 311.238281 161.382812 L 326.613281 158.191406 C 326.613281 158.191406 326.613281 158.480469 326.90625 159.0625 C 326.90625 159.644531 327.195312 160.222656 327.195312 161.09375 C 327.484375 162.835938 328.066406 165.734375 328.355469 168.925781 C 328.9375 172.117188 328.9375 175.890625 329.515625 179.953125 C 329.515625 181.984375 329.515625 184.011719 329.804688 186.335938 L 329.804688 193.007812 C 329.515625 201.710938 328.066406 210.414062 326.90625 216.796875 L 326.035156 221.148438 C 326.035156 221.730469 325.746094 222.3125 325.746094 222.890625 C 325.453125 223.472656 325.453125 224.050781 325.164062 224.339844 C 324.582031 226.082031 324.292969 227.242188 324.292969 227.242188 Z M 308.625 223.179688 " fill-opacity="1" fill-rule="nonzero"/><path fill="#4b7fc2" d="M 274.390625 279.464844 C 274.390625 279.464844 274.972656 278.886719 276.421875 277.726562 C 277.582031 276.566406 279.324219 274.824219 281.355469 272.503906 C 285.125 268.152344 290.058594 262.058594 294.121094 255.386719 C 298.183594 248.710938 301.664062 241.75 303.984375 236.527344 C 304.855469 233.914062 306.015625 231.59375 306.597656 230.144531 L 307.464844 227.53125 L 322.554688 232.464844 C 322.554688 232.464844 322.261719 233.625 321.683594 235.367188 C 321.101562 237.105469 319.941406 239.71875 318.78125 242.621094 C 316.171875 248.710938 312.398438 256.546875 307.757812 263.800781 C 303.113281 271.050781 297.601562 278.015625 293.25 282.949219 C 290.929688 285.269531 289.1875 287.300781 287.738281 288.75 C 286.285156 290.199219 285.417969 290.78125 285.417969 290.78125 Z M 274.390625 279.464844 " fill-opacity="1" fill-rule="nonzero"/><path fill="#4b7fc2" d="M 216.945312 310.800781 C 216.945312 310.800781 217.234375 310.800781 217.527344 310.511719 C 218.105469 310.511719 218.6875 310.21875 219.558594 309.929688 C 220.425781 309.640625 221.296875 309.347656 222.457031 309.058594 C 223.617188 308.769531 224.777344 308.480469 226.230469 307.898438 C 231.742188 306.15625 238.996094 303.257812 245.667969 299.773438 C 252.632812 296.292969 259.015625 291.941406 263.65625 288.460938 C 265.976562 286.71875 268.007812 285.269531 269.167969 284.109375 C 270.328125 282.949219 271.199219 282.367188 271.199219 282.367188 L 281.644531 294.261719 C 281.644531 294.261719 280.773438 294.84375 279.324219 296.292969 C 277.871094 297.746094 275.84375 299.195312 273.230469 301.226562 C 268.007812 305.289062 260.753906 309.929688 252.921875 313.992188 C 245.089844 318.054688 237.253906 321.246094 230.871094 323.277344 C 229.421875 323.855469 227.96875 324.144531 226.519531 324.4375 C 225.359375 324.726562 224.199219 325.015625 223.328125 325.308594 C 222.457031 325.597656 221.585938 325.597656 221.296875 325.886719 C 220.71875 325.886719 220.425781 326.175781 220.425781 326.175781 Z M 216.945312 310.800781 " fill-opacity="1" fill-rule="nonzero"/><path fill="#4b7fc2" d="M 151.375 309.058594 C 151.375 309.058594 152.246094 309.347656 153.988281 309.929688 C 155.4375 310.511719 158.050781 310.800781 160.660156 311.671875 C 166.464844 312.832031 174.007812 313.992188 181.839844 314.28125 L 193.445312 314.28125 C 197.21875 313.992188 200.410156 313.703125 203.308594 313.410156 C 204.761719 313.121094 206.210938 313.121094 207.371094 312.832031 C 208.53125 312.539062 209.402344 312.539062 210.273438 312.25 C 211.144531 312.25 211.722656 311.960938 212.304688 311.960938 C 212.882812 311.960938 212.882812 311.960938 212.882812 311.960938 L 216.074219 327.335938 L 215.203125 327.335938 C 214.625 327.335938 214.042969 327.628906 212.882812 327.628906 C 212.011719 327.917969 210.851562 327.917969 209.402344 328.207031 C 208.242188 328.5 206.5 328.5 205.050781 328.789062 C 201.859375 329.367188 198.085938 329.367188 194.027344 329.949219 C 191.996094 329.949219 189.964844 329.949219 187.644531 330.238281 L 180.96875 330.238281 C 172.265625 329.949219 163.5625 328.5 157.179688 327.335938 C 153.988281 326.46875 151.375 326.175781 149.636719 325.597656 C 147.894531 325.015625 146.734375 324.726562 146.734375 324.726562 Z M 151.375 309.058594 " fill-opacity="1" fill-rule="nonzero"/><path fill="#4b7fc2" d="M 95.671875 275.113281 C 95.671875 275.113281 96.25 275.695312 97.414062 277.144531 C 98.574219 278.304688 100.3125 280.046875 102.632812 282.078125 C 106.988281 286.140625 113.078125 290.78125 119.753906 294.84375 C 126.425781 298.90625 133.386719 302.386719 138.609375 304.707031 C 140.0625 305.289062 141.222656 305.578125 142.382812 306.15625 C 142.960938 306.449219 143.542969 306.449219 143.832031 306.738281 C 144.414062 307.027344 144.703125 307.027344 145.285156 307.027344 L 147.894531 307.898438 L 142.960938 322.984375 C 142.960938 322.984375 141.800781 322.695312 140.0625 322.117188 C 139.480469 321.824219 139.191406 321.824219 138.609375 321.535156 C 138.03125 321.246094 137.449219 320.953125 136.871094 320.953125 C 135.710938 320.375 134.257812 319.792969 132.808594 319.214844 C 126.714844 316.601562 118.882812 312.832031 111.628906 308.1875 C 104.375 303.546875 97.414062 298.035156 92.480469 293.683594 C 90.160156 291.363281 88.128906 289.621094 86.675781 288.171875 C 85.226562 286.71875 84.648438 285.847656 84.648438 285.847656 Z M 95.671875 275.113281 " fill-opacity="1" fill-rule="nonzero"/><path fill="#f79361" d="M 293.25 180.53125 L 193.734375 180.53125 C 193.15625 176.761719 190.253906 173.859375 186.480469 173.277344 L 186.480469 79.277344 L 183.582031 79.277344 L 183.582031 173.277344 C 179.808594 173.859375 176.90625 176.761719 176.328125 180.53125 L 76.523438 180.53125 L 76.523438 183.433594 L 176.039062 183.433594 C 176.617188 187.207031 179.519531 190.105469 183.289062 190.6875 L 183.289062 284.6875 L 186.191406 284.6875 L 186.191406 190.6875 C 189.964844 190.105469 192.863281 187.207031 193.445312 183.433594 L 292.960938 183.433594 Z M 293.25 180.53125 " fill-opacity="1" fill-rule="nonzero"/><path fill="#4b7fc2" d="M 170.523438 181.984375 C 170.523438 174.148438 176.90625 167.765625 184.742188 167.765625 C 192.574219 167.765625 198.957031 174.148438 198.957031 181.984375 C 198.957031 189.816406 192.574219 196.199219 184.742188 196.199219 C 176.90625 196.199219 170.523438 189.816406 170.523438 181.984375 Z M 170.523438 181.984375 " fill-opacity="1" fill-rule="nonzero"/></svg>